<?xml version="1.0" encoding="utf-8"?>
<svg xmlns="http://www.w3.org/2000/svg" xmlns:xlink="http://www.w3.org/1999/xlink" width="600" height="400" viewBox="0 0 2400 1600">
<defs>
  <clipPath id="clip7100">
    <rect x="0" y="0" width="2400" height="1600"/>
  </clipPath>
</defs>
<path clip-path="url(#clip7100)" d="
M0 1600 L2400 1600 L2400 0 L0 0  Z
  " fill="#ffffff" fill-rule="evenodd" fill-opacity="1"/>
<defs>
  <clipPath id="clip7101">
    <rect x="480" y="0" width="1681" height="1600"/>
  </clipPath>
</defs>
<path clip-path="url(#clip7100)" d="
M203.721 1425.62 L1152.76 1425.62 L1152.76 47.2441 L203.721 47.2441  Z
  " fill="#ffffff" fill-rule="evenodd" fill-opacity="1"/>
<defs>
  <clipPath id="clip7102">
    <rect x="203" y="47" width="950" height="1379"/>
  </clipPath>
</defs>
<polyline clip-path="url(#clip7102)" style="stroke:#000000; stroke-width:2; stroke-opacity:0.1; fill:none" points="
  290.394,1425.62 290.394,47.2441 
  "/>
<polyline clip-path="url(#clip7102)" style="stroke:#000000; stroke-width:2; stroke-opacity:0.1; fill:none" points="
  376.582,1425.62 376.582,47.2441 
  "/>
<polyline clip-path="url(#clip7102)" style="stroke:#000000; stroke-width:2; stroke-opacity:0.1; fill:none" points="
  462.769,1425.62 462.769,47.2441 
  "/>
<polyline clip-path="url(#clip7102)" style="stroke:#000000; stroke-width:2; stroke-opacity:0.1; fill:none" points="
  548.957,1425.62 548.957,47.2441 
  "/>
<polyline clip-path="url(#clip7102)" style="stroke:#000000; stroke-width:2; stroke-opacity:0.1; fill:none" points="
  635.145,1425.62 635.145,47.2441 
  "/>
<polyline clip-path="url(#clip7102)" style="stroke:#000000; stroke-width:2; stroke-opacity:0.1; fill:none" points="
  721.332,1425.62 721.332,47.2441 
  "/>
<polyline clip-path="url(#clip7102)" style="stroke:#000000; stroke-width:2; stroke-opacity:0.1; fill:none" points="
  807.52,1425.62 807.52,47.2441 
  "/>
<polyline clip-path="url(#clip7102)" style="stroke:#000000; stroke-width:2; stroke-opacity:0.1; fill:none" points="
  893.707,1425.62 893.707,47.2441 
  "/>
<polyline clip-path="url(#clip7102)" style="stroke:#000000; stroke-width:2; stroke-opacity:0.1; fill:none" points="
  979.895,1425.62 979.895,47.2441 
  "/>
<polyline clip-path="url(#clip7102)" style="stroke:#000000; stroke-width:2; stroke-opacity:0.1; fill:none" points="
  1066.08,1425.62 1066.08,47.2441 
  "/>
<polyline clip-path="url(#clip7102)" style="stroke:#000000; stroke-width:2; stroke-opacity:0.1; fill:none" points="
  203.721,1248.83 1152.76,1248.83 
  "/>
<polyline clip-path="url(#clip7102)" style="stroke:#000000; stroke-width:2; stroke-opacity:0.1; fill:none" points="
  203.721,903.147 1152.76,903.147 
  "/>
<polyline clip-path="url(#clip7102)" style="stroke:#000000; stroke-width:2; stroke-opacity:0.1; fill:none" points="
  203.721,557.462 1152.76,557.462 
  "/>
<polyline clip-path="url(#clip7102)" style="stroke:#000000; stroke-width:2; stroke-opacity:0.1; fill:none" points="
  203.721,211.778 1152.76,211.778 
  "/>
<polyline clip-path="url(#clip7100)" style="stroke:#000000; stroke-width:4; stroke-opacity:1; fill:none" points="
  203.721,1425.62 1152.76,1425.62 
  "/>
<polyline clip-path="url(#clip7100)" style="stroke:#000000; stroke-width:4; stroke-opacity:1; fill:none" points="
  203.721,1425.62 203.721,47.2441 
  "/>
<polyline clip-path="url(#clip7100)" style="stroke:#000000; stroke-width:4; stroke-opacity:1; fill:none" points="
  290.394,1425.62 290.394,1409.08 
  "/>
<polyline clip-path="url(#clip7100)" style="stroke:#000000; stroke-width:4; stroke-opacity:1; fill:none" points="
  376.582,1425.62 376.582,1409.08 
  "/>
<polyline clip-path="url(#clip7100)" style="stroke:#000000; stroke-width:4; stroke-opacity:1; fill:none" points="
  462.769,1425.62 462.769,1409.08 
  "/>
<polyline clip-path="url(#clip7100)" style="stroke:#000000; stroke-width:4; stroke-opacity:1; fill:none" points="
  548.957,1425.62 548.957,1409.08 
  "/>
<polyline clip-path="url(#clip7100)" style="stroke:#000000; stroke-width:4; stroke-opacity:1; fill:none" points="
  635.145,1425.62 635.145,1409.08 
  "/>
<polyline clip-path="url(#clip7100)" style="stroke:#000000; stroke-width:4; stroke-opacity:1; fill:none" points="
  721.332,1425.62 721.332,1409.08 
  "/>
<polyline clip-path="url(#clip7100)" style="stroke:#000000; stroke-width:4; stroke-opacity:1; fill:none" points="
  807.52,1425.62 807.52,1409.08 
  "/>
<polyline clip-path="url(#clip7100)" style="stroke:#000000; stroke-width:4; stroke-opacity:1; fill:none" points="
  893.707,1425.62 893.707,1409.08 
  "/>
<polyline clip-path="url(#clip7100)" style="stroke:#000000; stroke-width:4; stroke-opacity:1; fill:none" points="
  979.895,1425.62 979.895,1409.08 
  "/>
<polyline clip-path="url(#clip7100)" style="stroke:#000000; stroke-width:4; stroke-opacity:1; fill:none" points="
  1066.08,1425.62 1066.08,1409.08 
  "/>
<polyline clip-path="url(#clip7100)" style="stroke:#000000; stroke-width:4; stroke-opacity:1; fill:none" points="
  203.721,1248.83 215.109,1248.83 
  "/>
<polyline clip-path="url(#clip7100)" style="stroke:#000000; stroke-width:4; stroke-opacity:1; fill:none" points="
  203.721,903.147 215.109,903.147 
  "/>
<polyline clip-path="url(#clip7100)" style="stroke:#000000; stroke-width:4; stroke-opacity:1; fill:none" points="
  203.721,557.462 215.109,557.462 
  "/>
<polyline clip-path="url(#clip7100)" style="stroke:#000000; stroke-width:4; stroke-opacity:1; fill:none" points="
  203.721,211.778 215.109,211.778 
  "/>
<g clip-path="url(#clip7100)">
<text style="fill:#000000; fill-opacity:1; font-family:Arial,Helvetica Neue,Helvetica,sans-serif; font-size:48px; text-anchor:middle;" transform="rotate(0, 290.394, 1479.62)" x="290.394" y="1479.62">1</text>
</g>
<g clip-path="url(#clip7100)">
<text style="fill:#000000; fill-opacity:1; font-family:Arial,Helvetica Neue,Helvetica,sans-serif; font-size:48px; text-anchor:middle;" transform="rotate(0, 376.582, 1479.62)" x="376.582" y="1479.62">2</text>
</g>
<g clip-path="url(#clip7100)">
<text style="fill:#000000; fill-opacity:1; font-family:Arial,Helvetica Neue,Helvetica,sans-serif; font-size:48px; text-anchor:middle;" transform="rotate(0, 462.769, 1479.62)" x="462.769" y="1479.62">3</text>
</g>
<g clip-path="url(#clip7100)">
<text style="fill:#000000; fill-opacity:1; font-family:Arial,Helvetica Neue,Helvetica,sans-serif; font-size:48px; text-anchor:middle;" transform="rotate(0, 548.957, 1479.62)" x="548.957" y="1479.62">4</text>
</g>
<g clip-path="url(#clip7100)">
<text style="fill:#000000; fill-opacity:1; font-family:Arial,Helvetica Neue,Helvetica,sans-serif; font-size:48px; text-anchor:middle;" transform="rotate(0, 635.145, 1479.62)" x="635.145" y="1479.62">5</text>
</g>
<g clip-path="url(#clip7100)">
<text style="fill:#000000; fill-opacity:1; font-family:Arial,Helvetica Neue,Helvetica,sans-serif; font-size:48px; text-anchor:middle;" transform="rotate(0, 721.332, 1479.62)" x="721.332" y="1479.62">6</text>
</g>
<g clip-path="url(#clip7100)">
<text style="fill:#000000; fill-opacity:1; font-family:Arial,Helvetica Neue,Helvetica,sans-serif; font-size:48px; text-anchor:middle;" transform="rotate(0, 807.52, 1479.62)" x="807.52" y="1479.62">7</text>
</g>
<g clip-path="url(#clip7100)">
<text style="fill:#000000; fill-opacity:1; font-family:Arial,Helvetica Neue,Helvetica,sans-serif; font-size:48px; text-anchor:middle;" transform="rotate(0, 893.707, 1479.62)" x="893.707" y="1479.62">8</text>
</g>
<g clip-path="url(#clip7100)">
<text style="fill:#000000; fill-opacity:1; font-family:Arial,Helvetica Neue,Helvetica,sans-serif; font-size:48px; text-anchor:middle;" transform="rotate(0, 979.895, 1479.62)" x="979.895" y="1479.62">9</text>
</g>
<g clip-path="url(#clip7100)">
<text style="fill:#000000; fill-opacity:1; font-family:Arial,Helvetica Neue,Helvetica,sans-serif; font-size:48px; text-anchor:middle;" transform="rotate(0, 1066.08, 1479.62)" x="1066.08" y="1479.62">10</text>
</g>
<g clip-path="url(#clip7100)">
<text style="fill:#000000; fill-opacity:1; font-family:Arial,Helvetica Neue,Helvetica,sans-serif; font-size:48px; text-anchor:end;" transform="rotate(0, 179.721, 1266.33)" x="179.721" y="1266.33">-4</text>
</g>
<g clip-path="url(#clip7100)">
<text style="fill:#000000; fill-opacity:1; font-family:Arial,Helvetica Neue,Helvetica,sans-serif; font-size:48px; text-anchor:end;" transform="rotate(0, 179.721, 920.647)" x="179.721" y="920.647">-2</text>
</g>
<g clip-path="url(#clip7100)">
<text style="fill:#000000; fill-opacity:1; font-family:Arial,Helvetica Neue,Helvetica,sans-serif; font-size:48px; text-anchor:end;" transform="rotate(0, 179.721, 574.962)" x="179.721" y="574.962">0</text>
</g>
<g clip-path="url(#clip7100)">
<text style="fill:#000000; fill-opacity:1; font-family:Arial,Helvetica Neue,Helvetica,sans-serif; font-size:48px; text-anchor:end;" transform="rotate(0, 179.721, 229.278)" x="179.721" y="229.278">2</text>
</g>
<g clip-path="url(#clip7100)">
<text style="fill:#000000; fill-opacity:1; font-family:Arial,Helvetica Neue,Helvetica,sans-serif; font-size:66px; text-anchor:middle;" transform="rotate(0, 678.238, 1559.48)" x="678.238" y="1559.48">Article number</text>
</g>
<g clip-path="url(#clip7100)">
<text style="fill:#000000; fill-opacity:1; font-family:Arial,Helvetica Neue,Helvetica,sans-serif; font-size:66px; text-anchor:middle;" transform="rotate(-90, 89.2861, 736.431)" x="89.2861" y="736.431">Article score</text>
</g>
<path clip-path="url(#clip7102)" d="
M255.919 86.2547 L255.919 557.462 L324.869 557.462 L324.869 86.2547 L255.919 86.2547 L255.919 86.2547  Z
  " fill="#009af9" fill-rule="evenodd" fill-opacity="1"/>
<polyline clip-path="url(#clip7102)" style="stroke:#000000; stroke-width:4; stroke-opacity:1; fill:none" points="
  255.919,86.2547 255.919,557.462 324.869,557.462 324.869,86.2547 255.919,86.2547 
  "/>
<path clip-path="url(#clip7102)" d="
M342.107 1325.31 L342.107 557.462 L411.057 557.462 L411.057 1325.31 L342.107 1325.31 L342.107 1325.31  Z
  " fill="#009af9" fill-rule="evenodd" fill-opacity="1"/>
<polyline clip-path="url(#clip7102)" style="stroke:#000000; stroke-width:4; stroke-opacity:1; fill:none" points="
  342.107,1325.31 342.107,557.462 411.057,557.462 411.057,1325.31 342.107,1325.31 
  "/>
<path clip-path="url(#clip7102)" d="
M428.294 646.228 L428.294 557.462 L497.244 557.462 L497.244 646.228 L428.294 646.228 L428.294 646.228  Z
  " fill="#009af9" fill-rule="evenodd" fill-opacity="1"/>
<polyline clip-path="url(#clip7102)" style="stroke:#000000; stroke-width:4; stroke-opacity:1; fill:none" points="
  428.294,646.228 428.294,557.462 497.244,557.462 497.244,646.228 428.294,646.228 
  "/>
<path clip-path="url(#clip7102)" d="
M514.482 1386.61 L514.482 557.462 L583.432 557.462 L583.432 1386.61 L514.482 1386.61 L514.482 1386.61  Z
  " fill="#009af9" fill-rule="evenodd" fill-opacity="1"/>
<polyline clip-path="url(#clip7102)" style="stroke:#000000; stroke-width:4; stroke-opacity:1; fill:none" points="
  514.482,1386.61 514.482,557.462 583.432,557.462 583.432,1386.61 514.482,1386.61 
  "/>
<path clip-path="url(#clip7102)" d="
M600.669 632.072 L600.669 557.462 L669.62 557.462 L669.62 632.072 L600.669 632.072 L600.669 632.072  Z
  " fill="#009af9" fill-rule="evenodd" fill-opacity="1"/>
<polyline clip-path="url(#clip7102)" style="stroke:#000000; stroke-width:4; stroke-opacity:1; fill:none" points="
  600.669,632.072 600.669,557.462 669.62,557.462 669.62,632.072 600.669,632.072 
  "/>
<path clip-path="url(#clip7102)" d="
M686.857 416.495 L686.857 557.462 L755.807 557.462 L755.807 416.495 L686.857 416.495 L686.857 416.495  Z
  " fill="#009af9" fill-rule="evenodd" fill-opacity="1"/>
<polyline clip-path="url(#clip7102)" style="stroke:#000000; stroke-width:4; stroke-opacity:1; fill:none" points="
  686.857,416.495 686.857,557.462 755.807,557.462 755.807,416.495 686.857,416.495 
  "/>
<path clip-path="url(#clip7102)" d="
M773.045 1008.65 L773.045 557.462 L841.995 557.462 L841.995 1008.65 L773.045 1008.65 L773.045 1008.65  Z
  " fill="#009af9" fill-rule="evenodd" fill-opacity="1"/>
<polyline clip-path="url(#clip7102)" style="stroke:#000000; stroke-width:4; stroke-opacity:1; fill:none" points="
  773.045,1008.65 773.045,557.462 841.995,557.462 841.995,1008.65 773.045,1008.65 
  "/>
<path clip-path="url(#clip7102)" d="
M859.232 405.72 L859.232 557.462 L928.182 557.462 L928.182 405.72 L859.232 405.72 L859.232 405.72  Z
  " fill="#009af9" fill-rule="evenodd" fill-opacity="1"/>
<polyline clip-path="url(#clip7102)" style="stroke:#000000; stroke-width:4; stroke-opacity:1; fill:none" points="
  859.232,405.72 859.232,557.462 928.182,557.462 928.182,405.72 859.232,405.72 
  "/>
<path clip-path="url(#clip7102)" d="
M945.42 394.732 L945.42 557.462 L1014.37 557.462 L1014.37 394.732 L945.42 394.732 L945.42 394.732  Z
  " fill="#009af9" fill-rule="evenodd" fill-opacity="1"/>
<polyline clip-path="url(#clip7102)" style="stroke:#000000; stroke-width:4; stroke-opacity:1; fill:none" points="
  945.42,394.732 945.42,557.462 1014.37,557.462 1014.37,394.732 945.42,394.732 
  "/>
<path clip-path="url(#clip7102)" d="
M1031.61 495.333 L1031.61 557.462 L1100.56 557.462 L1100.56 495.333 L1031.61 495.333 L1031.61 495.333  Z
  " fill="#009af9" fill-rule="evenodd" fill-opacity="1"/>
<polyline clip-path="url(#clip7102)" style="stroke:#000000; stroke-width:4; stroke-opacity:1; fill:none" points="
  1031.61,495.333 1031.61,557.462 1100.56,557.462 1100.56,495.333 1031.61,495.333 
  "/>
<circle clip-path="url(#clip7102)" style="fill:#000000; stroke:none; fill-opacity:1" cx="290.394" cy="222.206" r="18"/>
<circle clip-path="url(#clip7102)" style="fill:#e26f46; stroke:none; fill-opacity:1" cx="290.394" cy="222.206" r="14"/>
<circle clip-path="url(#clip7102)" style="fill:#000000; stroke:none; fill-opacity:1" cx="376.582" cy="976.36" r="18"/>
<circle clip-path="url(#clip7102)" style="fill:#e26f46; stroke:none; fill-opacity:1" cx="376.582" cy="976.36" r="14"/>
<circle clip-path="url(#clip7102)" style="fill:#000000; stroke:none; fill-opacity:1" cx="462.769" cy="587.001" r="18"/>
<circle clip-path="url(#clip7102)" style="fill:#e26f46; stroke:none; fill-opacity:1" cx="462.769" cy="587.001" r="14"/>
<circle clip-path="url(#clip7102)" style="fill:#000000; stroke:none; fill-opacity:1" cx="548.957" cy="988.186" r="18"/>
<circle clip-path="url(#clip7102)" style="fill:#e26f46; stroke:none; fill-opacity:1" cx="548.957" cy="988.186" r="14"/>
<circle clip-path="url(#clip7102)" style="fill:#000000; stroke:none; fill-opacity:1" cx="635.145" cy="586.056" r="18"/>
<circle clip-path="url(#clip7102)" style="fill:#e26f46; stroke:none; fill-opacity:1" cx="635.145" cy="586.056" r="14"/>
<circle clip-path="url(#clip7102)" style="fill:#000000; stroke:none; fill-opacity:1" cx="721.332" cy="441.412" r="18"/>
<circle clip-path="url(#clip7102)" style="fill:#e26f46; stroke:none; fill-opacity:1" cx="721.332" cy="441.412" r="14"/>
<circle clip-path="url(#clip7102)" style="fill:#000000; stroke:none; fill-opacity:1" cx="807.52" cy="820.709" r="18"/>
<circle clip-path="url(#clip7102)" style="fill:#e26f46; stroke:none; fill-opacity:1" cx="807.52" cy="820.709" r="14"/>
<circle clip-path="url(#clip7102)" style="fill:#000000; stroke:none; fill-opacity:1" cx="893.707" cy="440.43" r="18"/>
<circle clip-path="url(#clip7102)" style="fill:#e26f46; stroke:none; fill-opacity:1" cx="893.707" cy="440.43" r="14"/>
<circle clip-path="url(#clip7102)" style="fill:#000000; stroke:none; fill-opacity:1" cx="979.895" cy="430.096" r="18"/>
<circle clip-path="url(#clip7102)" style="fill:#e26f46; stroke:none; fill-opacity:1" cx="979.895" cy="430.096" r="14"/>
<circle clip-path="url(#clip7102)" style="fill:#000000; stroke:none; fill-opacity:1" cx="1066.08" cy="487.849" r="18"/>
<circle clip-path="url(#clip7102)" style="fill:#e26f46; stroke:none; fill-opacity:1" cx="1066.08" cy="487.849" r="14"/>
<polyline clip-path="url(#clip7102)" style="stroke:#e26f46; stroke-width:4; stroke-opacity:1; fill:none" points="
  290.394,309.099 290.394,158.667 
  "/>
<polyline clip-path="url(#clip7102)" style="stroke:#e26f46; stroke-width:4; stroke-opacity:1; fill:none" points="
  376.582,1089.1 376.582,862.254 
  "/>
<polyline clip-path="url(#clip7102)" style="stroke:#e26f46; stroke-width:4; stroke-opacity:1; fill:none" points="
  462.769,632.715 462.769,526.841 
  "/>
<polyline clip-path="url(#clip7102)" style="stroke:#e26f46; stroke-width:4; stroke-opacity:1; fill:none" points="
  548.957,1111.86 548.957,868.736 
  "/>
<polyline clip-path="url(#clip7102)" style="stroke:#e26f46; stroke-width:4; stroke-opacity:1; fill:none" points="
  635.145,634.871 635.145,524.201 
  "/>
<polyline clip-path="url(#clip7102)" style="stroke:#e26f46; stroke-width:4; stroke-opacity:1; fill:none" points="
  721.332,496.192 721.332,383.249 
  "/>
<polyline clip-path="url(#clip7102)" style="stroke:#e26f46; stroke-width:4; stroke-opacity:1; fill:none" points="
  807.52,883.217 807.52,731.79 
  "/>
<polyline clip-path="url(#clip7102)" style="stroke:#e26f46; stroke-width:4; stroke-opacity:1; fill:none" points="
  893.707,496.392 893.707,379.19 
  "/>
<polyline clip-path="url(#clip7102)" style="stroke:#e26f46; stroke-width:4; stroke-opacity:1; fill:none" points="
  979.895,485.819 979.895,370.899 
  "/>
<polyline clip-path="url(#clip7102)" style="stroke:#e26f46; stroke-width:4; stroke-opacity:1; fill:none" points="
  1066.08,537.784 1066.08,426.616 
  "/>
<line clip-path="url(#clip7102)" x1="310.394" y1="309.099" x2="270.394" y2="309.099" style="stroke:#000000; stroke-width:4; stroke-opacity:1"/>
<line clip-path="url(#clip7102)" x1="310.394" y1="158.667" x2="270.394" y2="158.667" style="stroke:#000000; stroke-width:4; stroke-opacity:1"/>
<line clip-path="url(#clip7102)" x1="396.582" y1="1089.1" x2="356.582" y2="1089.1" style="stroke:#000000; stroke-width:4; stroke-opacity:1"/>
<line clip-path="url(#clip7102)" x1="396.582" y1="862.254" x2="356.582" y2="862.254" style="stroke:#000000; stroke-width:4; stroke-opacity:1"/>
<line clip-path="url(#clip7102)" x1="482.769" y1="632.715" x2="442.769" y2="632.715" style="stroke:#000000; stroke-width:4; stroke-opacity:1"/>
<line clip-path="url(#clip7102)" x1="482.769" y1="526.841" x2="442.769" y2="526.841" style="stroke:#000000; stroke-width:4; stroke-opacity:1"/>
<line clip-path="url(#clip7102)" x1="568.957" y1="1111.86" x2="528.957" y2="1111.86" style="stroke:#000000; stroke-width:4; stroke-opacity:1"/>
<line clip-path="url(#clip7102)" x1="568.957" y1="868.736" x2="528.957" y2="868.736" style="stroke:#000000; stroke-width:4; stroke-opacity:1"/>
<line clip-path="url(#clip7102)" x1="655.145" y1="634.871" x2="615.145" y2="634.871" style="stroke:#000000; stroke-width:4; stroke-opacity:1"/>
<line clip-path="url(#clip7102)" x1="655.145" y1="524.201" x2="615.145" y2="524.201" style="stroke:#000000; stroke-width:4; stroke-opacity:1"/>
<line clip-path="url(#clip7102)" x1="741.332" y1="496.192" x2="701.332" y2="496.192" style="stroke:#000000; stroke-width:4; stroke-opacity:1"/>
<line clip-path="url(#clip7102)" x1="741.332" y1="383.249" x2="701.332" y2="383.249" style="stroke:#000000; stroke-width:4; stroke-opacity:1"/>
<line clip-path="url(#clip7102)" x1="827.52" y1="883.217" x2="787.52" y2="883.217" style="stroke:#000000; stroke-width:4; stroke-opacity:1"/>
<line clip-path="url(#clip7102)" x1="827.52" y1="731.79" x2="787.52" y2="731.79" style="stroke:#000000; stroke-width:4; stroke-opacity:1"/>
<line clip-path="url(#clip7102)" x1="913.707" y1="496.392" x2="873.707" y2="496.392" style="stroke:#000000; stroke-width:4; stroke-opacity:1"/>
<line clip-path="url(#clip7102)" x1="913.707" y1="379.19" x2="873.707" y2="379.19" style="stroke:#000000; stroke-width:4; stroke-opacity:1"/>
<line clip-path="url(#clip7102)" x1="999.895" y1="485.819" x2="959.895" y2="485.819" style="stroke:#000000; stroke-width:4; stroke-opacity:1"/>
<line clip-path="url(#clip7102)" x1="999.895" y1="370.899" x2="959.895" y2="370.899" style="stroke:#000000; stroke-width:4; stroke-opacity:1"/>
<line clip-path="url(#clip7102)" x1="1086.08" y1="537.784" x2="1046.08" y2="537.784" style="stroke:#000000; stroke-width:4; stroke-opacity:1"/>
<line clip-path="url(#clip7102)" x1="1086.08" y1="426.616" x2="1046.08" y2="426.616" style="stroke:#000000; stroke-width:4; stroke-opacity:1"/>
<path clip-path="url(#clip7100)" d="
M359.178 312.204 L1080.76 312.204 L1080.76 130.764 L359.178 130.764  Z
  " fill="#ffffff" fill-rule="evenodd" fill-opacity="1"/>
<polyline clip-path="url(#clip7100)" style="stroke:#000000; stroke-width:4; stroke-opacity:1; fill:none" points="
  359.178,312.204 1080.76,312.204 1080.76,130.764 359.178,130.764 359.178,312.204 
  "/>
<path clip-path="url(#clip7100)" d="
M383.178 215.436 L527.178 215.436 L527.178 167.052 L383.178 167.052 L383.178 215.436  Z
  " fill="#009af9" fill-rule="evenodd" fill-opacity="1"/>
<polyline clip-path="url(#clip7100)" style="stroke:#000000; stroke-width:4; stroke-opacity:1; fill:none" points="
  383.178,215.436 527.178,215.436 527.178,167.052 383.178,167.052 383.178,215.436 
  "/>
<g clip-path="url(#clip7100)">
<text style="fill:#000000; fill-opacity:1; font-family:Arial,Helvetica Neue,Helvetica,sans-serif; font-size:48px; text-anchor:start;" transform="rotate(0, 551.178, 208.744)" x="551.178" y="208.744">Data</text>
</g>
<circle clip-path="url(#clip7100)" style="fill:#000000; stroke:none; fill-opacity:1" cx="467.178" cy="251.724" r="25"/>
<circle clip-path="url(#clip7100)" style="fill:#e26f46; stroke:none; fill-opacity:1" cx="467.178" cy="251.724" r="21"/>
<g clip-path="url(#clip7100)">
<text style="fill:#000000; fill-opacity:1; font-family:Arial,Helvetica Neue,Helvetica,sans-serif; font-size:48px; text-anchor:start;" transform="rotate(0, 551.178, 269.224)" x="551.178" y="269.224">Mean with 0.8 quantile</text>
</g>
<path clip-path="url(#clip7100)" d="
M1403.72 1425.62 L2352.76 1425.62 L2352.76 47.2441 L1403.72 47.2441  Z
  " fill="#ffffff" fill-rule="evenodd" fill-opacity="1"/>
<defs>
  <clipPath id="clip7103">
    <rect x="1403" y="47" width="950" height="1379"/>
  </clipPath>
</defs>
<polyline clip-path="url(#clip7103)" style="stroke:#000000; stroke-width:2; stroke-opacity:0.1; fill:none" points="
  1514.17,1425.62 1514.17,47.2441 
  "/>
<polyline clip-path="url(#clip7103)" style="stroke:#000000; stroke-width:2; stroke-opacity:0.1; fill:none" points="
  1659.8,1425.62 1659.8,47.2441 
  "/>
<polyline clip-path="url(#clip7103)" style="stroke:#000000; stroke-width:2; stroke-opacity:0.1; fill:none" points="
  1805.42,1425.62 1805.42,47.2441 
  "/>
<polyline clip-path="url(#clip7103)" style="stroke:#000000; stroke-width:2; stroke-opacity:0.1; fill:none" points="
  1951.05,1425.62 1951.05,47.2441 
  "/>
<polyline clip-path="url(#clip7103)" style="stroke:#000000; stroke-width:2; stroke-opacity:0.1; fill:none" points="
  2096.68,1425.62 2096.68,47.2441 
  "/>
<polyline clip-path="url(#clip7103)" style="stroke:#000000; stroke-width:2; stroke-opacity:0.1; fill:none" points="
  2242.31,1425.62 2242.31,47.2441 
  "/>
<polyline clip-path="url(#clip7103)" style="stroke:#000000; stroke-width:2; stroke-opacity:0.1; fill:none" points="
  1403.72,1317.19 2352.76,1317.19 
  "/>
<polyline clip-path="url(#clip7103)" style="stroke:#000000; stroke-width:2; stroke-opacity:0.1; fill:none" points="
  1403.72,1001.93 2352.76,1001.93 
  "/>
<polyline clip-path="url(#clip7103)" style="stroke:#000000; stroke-width:2; stroke-opacity:0.1; fill:none" points="
  1403.72,686.68 2352.76,686.68 
  "/>
<polyline clip-path="url(#clip7103)" style="stroke:#000000; stroke-width:2; stroke-opacity:0.1; fill:none" points="
  1403.72,371.425 2352.76,371.425 
  "/>
<polyline clip-path="url(#clip7103)" style="stroke:#000000; stroke-width:2; stroke-opacity:0.1; fill:none" points="
  1403.72,56.1697 2352.76,56.1697 
  "/>
<polyline clip-path="url(#clip7100)" style="stroke:#000000; stroke-width:4; stroke-opacity:1; fill:none" points="
  1403.72,1425.62 2352.76,1425.62 
  "/>
<polyline clip-path="url(#clip7100)" style="stroke:#000000; stroke-width:4; stroke-opacity:1; fill:none" points="
  1403.72,1425.62 1403.72,47.2441 
  "/>
<polyline clip-path="url(#clip7100)" style="stroke:#000000; stroke-width:4; stroke-opacity:1; fill:none" points="
  1514.17,1425.62 1514.17,1409.08 
  "/>
<polyline clip-path="url(#clip7100)" style="stroke:#000000; stroke-width:4; stroke-opacity:1; fill:none" points="
  1659.8,1425.62 1659.8,1409.08 
  "/>
<polyline clip-path="url(#clip7100)" style="stroke:#000000; stroke-width:4; stroke-opacity:1; fill:none" points="
  1805.42,1425.62 1805.42,1409.08 
  "/>
<polyline clip-path="url(#clip7100)" style="stroke:#000000; stroke-width:4; stroke-opacity:1; fill:none" points="
  1951.05,1425.62 1951.05,1409.08 
  "/>
<polyline clip-path="url(#clip7100)" style="stroke:#000000; stroke-width:4; stroke-opacity:1; fill:none" points="
  2096.68,1425.62 2096.68,1409.08 
  "/>
<polyline clip-path="url(#clip7100)" style="stroke:#000000; stroke-width:4; stroke-opacity:1; fill:none" points="
  2242.31,1425.62 2242.31,1409.08 
  "/>
<polyline clip-path="url(#clip7100)" style="stroke:#000000; stroke-width:4; stroke-opacity:1; fill:none" points="
  1403.72,1317.19 1415.11,1317.19 
  "/>
<polyline clip-path="url(#clip7100)" style="stroke:#000000; stroke-width:4; stroke-opacity:1; fill:none" points="
  1403.72,1001.93 1415.11,1001.93 
  "/>
<polyline clip-path="url(#clip7100)" style="stroke:#000000; stroke-width:4; stroke-opacity:1; fill:none" points="
  1403.72,686.68 1415.11,686.68 
  "/>
<polyline clip-path="url(#clip7100)" style="stroke:#000000; stroke-width:4; stroke-opacity:1; fill:none" points="
  1403.72,371.425 1415.11,371.425 
  "/>
<polyline clip-path="url(#clip7100)" style="stroke:#000000; stroke-width:4; stroke-opacity:1; fill:none" points="
  1403.72,56.1697 1415.11,56.1697 
  "/>
<g clip-path="url(#clip7100)">
<text style="fill:#000000; fill-opacity:1; font-family:Arial,Helvetica Neue,Helvetica,sans-serif; font-size:48px; text-anchor:middle;" transform="rotate(0, 1514.17, 1479.62)" x="1514.17" y="1479.62">1</text>
</g>
<g clip-path="url(#clip7100)">
<text style="fill:#000000; fill-opacity:1; font-family:Arial,Helvetica Neue,Helvetica,sans-serif; font-size:48px; text-anchor:middle;" transform="rotate(0, 1659.8, 1479.62)" x="1659.8" y="1479.62">2</text>
</g>
<g clip-path="url(#clip7100)">
<text style="fill:#000000; fill-opacity:1; font-family:Arial,Helvetica Neue,Helvetica,sans-serif; font-size:48px; text-anchor:middle;" transform="rotate(0, 1805.42, 1479.62)" x="1805.42" y="1479.62">3</text>
</g>
<g clip-path="url(#clip7100)">
<text style="fill:#000000; fill-opacity:1; font-family:Arial,Helvetica Neue,Helvetica,sans-serif; font-size:48px; text-anchor:middle;" transform="rotate(0, 1951.05, 1479.62)" x="1951.05" y="1479.62">4</text>
</g>
<g clip-path="url(#clip7100)">
<text style="fill:#000000; fill-opacity:1; font-family:Arial,Helvetica Neue,Helvetica,sans-serif; font-size:48px; text-anchor:middle;" transform="rotate(0, 2096.68, 1479.62)" x="2096.68" y="1479.62">5</text>
</g>
<g clip-path="url(#clip7100)">
<text style="fill:#000000; fill-opacity:1; font-family:Arial,Helvetica Neue,Helvetica,sans-serif; font-size:48px; text-anchor:middle;" transform="rotate(0, 2242.31, 1479.62)" x="2242.31" y="1479.62">6</text>
</g>
<g clip-path="url(#clip7100)">
<text style="fill:#000000; fill-opacity:1; font-family:Arial,Helvetica Neue,Helvetica,sans-serif; font-size:48px; text-anchor:end;" transform="rotate(0, 1379.72, 1334.69)" x="1379.72" y="1334.69">-3</text>
</g>
<g clip-path="url(#clip7100)">
<text style="fill:#000000; fill-opacity:1; font-family:Arial,Helvetica Neue,Helvetica,sans-serif; font-size:48px; text-anchor:end;" transform="rotate(0, 1379.72, 1019.43)" x="1379.72" y="1019.43">-2</text>
</g>
<g clip-path="url(#clip7100)">
<text style="fill:#000000; fill-opacity:1; font-family:Arial,Helvetica Neue,Helvetica,sans-serif; font-size:48px; text-anchor:end;" transform="rotate(0, 1379.72, 704.18)" x="1379.72" y="704.18">-1</text>
</g>
<g clip-path="url(#clip7100)">
<text style="fill:#000000; fill-opacity:1; font-family:Arial,Helvetica Neue,Helvetica,sans-serif; font-size:48px; text-anchor:end;" transform="rotate(0, 1379.72, 388.925)" x="1379.72" y="388.925">0</text>
</g>
<g clip-path="url(#clip7100)">
<text style="fill:#000000; fill-opacity:1; font-family:Arial,Helvetica Neue,Helvetica,sans-serif; font-size:48px; text-anchor:end;" transform="rotate(0, 1379.72, 73.6697)" x="1379.72" y="73.6697">1</text>
</g>
<g clip-path="url(#clip7100)">
<text style="fill:#000000; fill-opacity:1; font-family:Arial,Helvetica Neue,Helvetica,sans-serif; font-size:66px; text-anchor:middle;" transform="rotate(0, 1878.24, 1559.48)" x="1878.24" y="1559.48">Reviewer number</text>
</g>
<g clip-path="url(#clip7100)">
<text style="fill:#000000; fill-opacity:1; font-family:Arial,Helvetica Neue,Helvetica,sans-serif; font-size:66px; text-anchor:middle;" transform="rotate(-90, 1289.29, 736.431)" x="1289.29" y="736.431">Reviewer bias</text>
</g>
<path clip-path="url(#clip7103)" d="
M1455.92 1099.82 L1455.92 371.425 L1572.42 371.425 L1572.42 1099.82 L1455.92 1099.82 L1455.92 1099.82  Z
  " fill="#009af9" fill-rule="evenodd" fill-opacity="1"/>
<polyline clip-path="url(#clip7103)" style="stroke:#000000; stroke-width:4; stroke-opacity:1; fill:none" points="
  1455.92,1099.82 1455.92,371.425 1572.42,371.425 1572.42,1099.82 1455.92,1099.82 
  "/>
<path clip-path="url(#clip7103)" d="
M1601.55 749.793 L1601.55 371.425 L1718.05 371.425 L1718.05 749.793 L1601.55 749.793 L1601.55 749.793  Z
  " fill="#009af9" fill-rule="evenodd" fill-opacity="1"/>
<polyline clip-path="url(#clip7103)" style="stroke:#000000; stroke-width:4; stroke-opacity:1; fill:none" points="
  1601.55,749.793 1601.55,371.425 1718.05,371.425 1718.05,749.793 1601.55,749.793 
  "/>
<path clip-path="url(#clip7103)" d="
M1747.17 691.343 L1747.17 371.425 L1863.68 371.425 L1863.68 691.343 L1747.17 691.343 L1747.17 691.343  Z
  " fill="#009af9" fill-rule="evenodd" fill-opacity="1"/>
<polyline clip-path="url(#clip7103)" style="stroke:#000000; stroke-width:4; stroke-opacity:1; fill:none" points="
  1747.17,691.343 1747.17,371.425 1863.68,371.425 1863.68,691.343 1747.17,691.343 
  "/>
<path clip-path="url(#clip7103)" d="
M1892.8 725.084 L1892.8 371.425 L2009.3 371.425 L2009.3 725.084 L1892.8 725.084 L1892.8 725.084  Z
  " fill="#009af9" fill-rule="evenodd" fill-opacity="1"/>
<polyline clip-path="url(#clip7103)" style="stroke:#000000; stroke-width:4; stroke-opacity:1; fill:none" points="
  1892.8,725.084 1892.8,371.425 2009.3,371.425 2009.3,725.084 1892.8,725.084 
  "/>
<path clip-path="url(#clip7103)" d="
M2038.43 500.252 L2038.43 371.425 L2154.93 371.425 L2154.93 500.252 L2038.43 500.252 L2038.43 500.252  Z
  " fill="#009af9" fill-rule="evenodd" fill-opacity="1"/>
<polyline clip-path="url(#clip7103)" style="stroke:#000000; stroke-width:4; stroke-opacity:1; fill:none" points="
  2038.43,500.252 2038.43,371.425 2154.93,371.425 2154.93,500.252 2038.43,500.252 
  "/>
<path clip-path="url(#clip7103)" d="
M2184.06 455.396 L2184.06 371.425 L2300.56 371.425 L2300.56 455.396 L2184.06 455.396 L2184.06 455.396  Z
  " fill="#009af9" fill-rule="evenodd" fill-opacity="1"/>
<polyline clip-path="url(#clip7103)" style="stroke:#000000; stroke-width:4; stroke-opacity:1; fill:none" points="
  2184.06,455.396 2184.06,371.425 2300.56,371.425 2300.56,455.396 2184.06,455.396 
  "/>
<circle clip-path="url(#clip7103)" style="fill:#000000; stroke:none; fill-opacity:1" cx="1514.17" cy="1107.45" r="18"/>
<circle clip-path="url(#clip7103)" style="fill:#e26f46; stroke:none; fill-opacity:1" cx="1514.17" cy="1107.45" r="14"/>
<circle clip-path="url(#clip7103)" style="fill:#000000; stroke:none; fill-opacity:1" cx="1659.8" cy="825.564" r="18"/>
<circle clip-path="url(#clip7103)" style="fill:#e26f46; stroke:none; fill-opacity:1" cx="1659.8" cy="825.564" r="14"/>
<circle clip-path="url(#clip7103)" style="fill:#000000; stroke:none; fill-opacity:1" cx="1805.42" cy="772.888" r="18"/>
<circle clip-path="url(#clip7103)" style="fill:#e26f46; stroke:none; fill-opacity:1" cx="1805.42" cy="772.888" r="14"/>
<circle clip-path="url(#clip7103)" style="fill:#000000; stroke:none; fill-opacity:1" cx="1951.05" cy="806.15" r="18"/>
<circle clip-path="url(#clip7103)" style="fill:#e26f46; stroke:none; fill-opacity:1" cx="1951.05" cy="806.15" r="14"/>
<circle clip-path="url(#clip7103)" style="fill:#000000; stroke:none; fill-opacity:1" cx="2096.68" cy="603.055" r="18"/>
<circle clip-path="url(#clip7103)" style="fill:#e26f46; stroke:none; fill-opacity:1" cx="2096.68" cy="603.055" r="14"/>
<circle clip-path="url(#clip7103)" style="fill:#000000; stroke:none; fill-opacity:1" cx="2242.31" cy="558.024" r="18"/>
<circle clip-path="url(#clip7103)" style="fill:#e26f46; stroke:none; fill-opacity:1" cx="2242.31" cy="558.024" r="14"/>
<polyline clip-path="url(#clip7103)" style="stroke:#e26f46; stroke-width:4; stroke-opacity:1; fill:none" points="
  1514.17,1386.61 1514.17,729.701 
  "/>
<polyline clip-path="url(#clip7103)" style="stroke:#e26f46; stroke-width:4; stroke-opacity:1; fill:none" points="
  1659.8,1147.68 1659.8,439.051 
  "/>
<polyline clip-path="url(#clip7103)" style="stroke:#e26f46; stroke-width:4; stroke-opacity:1; fill:none" points="
  1805.42,1106.24 1805.42,301.104 
  "/>
<polyline clip-path="url(#clip7103)" style="stroke:#e26f46; stroke-width:4; stroke-opacity:1; fill:none" points="
  1951.05,1164.88 1951.05,384.021 
  "/>
<polyline clip-path="url(#clip7103)" style="stroke:#e26f46; stroke-width:4; stroke-opacity:1; fill:none" points="
  2096.68,1001.38 2096.68,123.643 
  "/>
<polyline clip-path="url(#clip7103)" style="stroke:#e26f46; stroke-width:4; stroke-opacity:1; fill:none" points="
  2242.31,931.402 2242.31,86.2547 
  "/>
<line clip-path="url(#clip7103)" x1="1534.17" y1="1386.61" x2="1494.17" y2="1386.61" style="stroke:#000000; stroke-width:4; stroke-opacity:1"/>
<line clip-path="url(#clip7103)" x1="1534.17" y1="729.701" x2="1494.17" y2="729.701" style="stroke:#000000; stroke-width:4; stroke-opacity:1"/>
<line clip-path="url(#clip7103)" x1="1679.8" y1="1147.68" x2="1639.8" y2="1147.68" style="stroke:#000000; stroke-width:4; stroke-opacity:1"/>
<line clip-path="url(#clip7103)" x1="1679.8" y1="439.051" x2="1639.8" y2="439.051" style="stroke:#000000; stroke-width:4; stroke-opacity:1"/>
<line clip-path="url(#clip7103)" x1="1825.42" y1="1106.24" x2="1785.42" y2="1106.24" style="stroke:#000000; stroke-width:4; stroke-opacity:1"/>
<line clip-path="url(#clip7103)" x1="1825.42" y1="301.104" x2="1785.42" y2="301.104" style="stroke:#000000; stroke-width:4; stroke-opacity:1"/>
<line clip-path="url(#clip7103)" x1="1971.05" y1="1164.88" x2="1931.05" y2="1164.88" style="stroke:#000000; stroke-width:4; stroke-opacity:1"/>
<line clip-path="url(#clip7103)" x1="1971.05" y1="384.021" x2="1931.05" y2="384.021" style="stroke:#000000; stroke-width:4; stroke-opacity:1"/>
<line clip-path="url(#clip7103)" x1="2116.68" y1="1001.38" x2="2076.68" y2="1001.38" style="stroke:#000000; stroke-width:4; stroke-opacity:1"/>
<line clip-path="url(#clip7103)" x1="2116.68" y1="123.643" x2="2076.68" y2="123.643" style="stroke:#000000; stroke-width:4; stroke-opacity:1"/>
<line clip-path="url(#clip7103)" x1="2262.31" y1="931.402" x2="2222.31" y2="931.402" style="stroke:#000000; stroke-width:4; stroke-opacity:1"/>
<line clip-path="url(#clip7103)" x1="2262.31" y1="86.2547" x2="2222.31" y2="86.2547" style="stroke:#000000; stroke-width:4; stroke-opacity:1"/>
<path clip-path="url(#clip7100)" d="
M1505.65 312.204 L2280.76 312.204 L2280.76 130.764 L1505.65 130.764  Z
  " fill="#ffffff" fill-rule="evenodd" fill-opacity="1"/>
<polyline clip-path="url(#clip7100)" style="stroke:#000000; stroke-width:4; stroke-opacity:1; fill:none" points="
  1505.65,312.204 2280.76,312.204 2280.76,130.764 1505.65,130.764 1505.65,312.204 
  "/>
<path clip-path="url(#clip7100)" d="
M1529.65 215.436 L1673.65 215.436 L1673.65 167.052 L1529.65 167.052 L1529.65 215.436  Z
  " fill="#009af9" fill-rule="evenodd" fill-opacity="1"/>
<polyline clip-path="url(#clip7100)" style="stroke:#000000; stroke-width:4; stroke-opacity:1; fill:none" points="
  1529.65,215.436 1673.65,215.436 1673.65,167.052 1529.65,167.052 1529.65,215.436 
  "/>
<g clip-path="url(#clip7100)">
<text style="fill:#000000; fill-opacity:1; font-family:Arial,Helvetica Neue,Helvetica,sans-serif; font-size:48px; text-anchor:start;" transform="rotate(0, 1697.65, 208.744)" x="1697.65" y="208.744">Data</text>
</g>
<circle clip-path="url(#clip7100)" style="fill:#000000; stroke:none; fill-opacity:1" cx="1613.65" cy="251.724" r="25"/>
<circle clip-path="url(#clip7100)" style="fill:#e26f46; stroke:none; fill-opacity:1" cx="1613.65" cy="251.724" r="21"/>
<g clip-path="url(#clip7100)">
<text style="fill:#000000; fill-opacity:1; font-family:Arial,Helvetica Neue,Helvetica,sans-serif; font-size:48px; text-anchor:start;" transform="rotate(0, 1697.65, 269.224)" x="1697.65" y="269.224">Mean with 0.025 quantile</text>
</g>
</svg>
