<?xml version="1.0" encoding="utf-8"?>
<svg xmlns="http://www.w3.org/2000/svg" xmlns:xlink="http://www.w3.org/1999/xlink" width="600" height="400" viewBox="0 0 2400 1600">
<defs>
  <clipPath id="clip6600">
    <rect x="0" y="0" width="2400" height="1600"/>
  </clipPath>
</defs>
<path clip-path="url(#clip6600)" d="
M0 1600 L2400 1600 L2400 0 L0 0  Z
  " fill="#ffffff" fill-rule="evenodd" fill-opacity="1"/>
<defs>
  <clipPath id="clip6601">
    <rect x="480" y="0" width="1681" height="1600"/>
  </clipPath>
</defs>
<path clip-path="url(#clip6600)" d="
M321.058 1429.6 L2352.76 1429.6 L2352.76 47.2441 L321.058 47.2441  Z
  " fill="#ffffff" fill-rule="evenodd" fill-opacity="1"/>
<defs>
  <clipPath id="clip6602">
    <rect x="321" y="47" width="2033" height="1383"/>
  </clipPath>
</defs>
<polyline clip-path="url(#clip6602)" style="stroke:#000000; stroke-width:2; stroke-opacity:0.1; fill:none" points="
  642.931,1429.6 642.931,47.2441 
  "/>
<polyline clip-path="url(#clip6602)" style="stroke:#000000; stroke-width:2; stroke-opacity:0.1; fill:none" points="
  973.396,1429.6 973.396,47.2441 
  "/>
<polyline clip-path="url(#clip6602)" style="stroke:#000000; stroke-width:2; stroke-opacity:0.1; fill:none" points="
  1303.86,1429.6 1303.86,47.2441 
  "/>
<polyline clip-path="url(#clip6602)" style="stroke:#000000; stroke-width:2; stroke-opacity:0.1; fill:none" points="
  1634.33,1429.6 1634.33,47.2441 
  "/>
<polyline clip-path="url(#clip6602)" style="stroke:#000000; stroke-width:2; stroke-opacity:0.1; fill:none" points="
  1964.79,1429.6 1964.79,47.2441 
  "/>
<polyline clip-path="url(#clip6602)" style="stroke:#000000; stroke-width:2; stroke-opacity:0.1; fill:none" points="
  2295.26,1429.6 2295.26,47.2441 
  "/>
<polyline clip-path="url(#clip6602)" style="stroke:#000000; stroke-width:2; stroke-opacity:0.1; fill:none" points="
  321.058,1229.2 2352.76,1229.2 
  "/>
<polyline clip-path="url(#clip6602)" style="stroke:#000000; stroke-width:2; stroke-opacity:0.1; fill:none" points="
  321.058,934.866 2352.76,934.866 
  "/>
<polyline clip-path="url(#clip6602)" style="stroke:#000000; stroke-width:2; stroke-opacity:0.1; fill:none" points="
  321.058,640.536 2352.76,640.536 
  "/>
<polyline clip-path="url(#clip6602)" style="stroke:#000000; stroke-width:2; stroke-opacity:0.1; fill:none" points="
  321.058,346.205 2352.76,346.205 
  "/>
<polyline clip-path="url(#clip6602)" style="stroke:#000000; stroke-width:2; stroke-opacity:0.1; fill:none" points="
  321.058,51.8743 2352.76,51.8743 
  "/>
<polyline clip-path="url(#clip6600)" style="stroke:#000000; stroke-width:4; stroke-opacity:1; fill:none" points="
  321.058,1429.6 2352.76,1429.6 
  "/>
<polyline clip-path="url(#clip6600)" style="stroke:#000000; stroke-width:4; stroke-opacity:1; fill:none" points="
  321.058,1429.6 321.058,47.2441 
  "/>
<polyline clip-path="url(#clip6600)" style="stroke:#000000; stroke-width:4; stroke-opacity:1; fill:none" points="
  642.931,1429.6 642.931,1413.02 
  "/>
<polyline clip-path="url(#clip6600)" style="stroke:#000000; stroke-width:4; stroke-opacity:1; fill:none" points="
  973.396,1429.6 973.396,1413.02 
  "/>
<polyline clip-path="url(#clip6600)" style="stroke:#000000; stroke-width:4; stroke-opacity:1; fill:none" points="
  1303.86,1429.6 1303.86,1413.02 
  "/>
<polyline clip-path="url(#clip6600)" style="stroke:#000000; stroke-width:4; stroke-opacity:1; fill:none" points="
  1634.33,1429.6 1634.33,1413.02 
  "/>
<polyline clip-path="url(#clip6600)" style="stroke:#000000; stroke-width:4; stroke-opacity:1; fill:none" points="
  1964.79,1429.6 1964.79,1413.02 
  "/>
<polyline clip-path="url(#clip6600)" style="stroke:#000000; stroke-width:4; stroke-opacity:1; fill:none" points="
  2295.26,1429.6 2295.26,1413.02 
  "/>
<polyline clip-path="url(#clip6600)" style="stroke:#000000; stroke-width:4; stroke-opacity:1; fill:none" points="
  321.058,1229.2 345.439,1229.2 
  "/>
<polyline clip-path="url(#clip6600)" style="stroke:#000000; stroke-width:4; stroke-opacity:1; fill:none" points="
  321.058,934.866 345.439,934.866 
  "/>
<polyline clip-path="url(#clip6600)" style="stroke:#000000; stroke-width:4; stroke-opacity:1; fill:none" points="
  321.058,640.536 345.439,640.536 
  "/>
<polyline clip-path="url(#clip6600)" style="stroke:#000000; stroke-width:4; stroke-opacity:1; fill:none" points="
  321.058,346.205 345.439,346.205 
  "/>
<polyline clip-path="url(#clip6600)" style="stroke:#000000; stroke-width:4; stroke-opacity:1; fill:none" points="
  321.058,51.8743 345.439,51.8743 
  "/>
<g clip-path="url(#clip6600)">
<text style="fill:#000000; fill-opacity:1; font-family:Arial,Helvetica Neue,Helvetica,sans-serif; font-size:48px; text-anchor:middle;" transform="rotate(0, 642.931, 1483.6)" x="642.931" y="1483.6">5</text>
</g>
<g clip-path="url(#clip6600)">
<text style="fill:#000000; fill-opacity:1; font-family:Arial,Helvetica Neue,Helvetica,sans-serif; font-size:48px; text-anchor:middle;" transform="rotate(0, 973.396, 1483.6)" x="973.396" y="1483.6">10</text>
</g>
<g clip-path="url(#clip6600)">
<text style="fill:#000000; fill-opacity:1; font-family:Arial,Helvetica Neue,Helvetica,sans-serif; font-size:48px; text-anchor:middle;" transform="rotate(0, 1303.86, 1483.6)" x="1303.86" y="1483.6">15</text>
</g>
<g clip-path="url(#clip6600)">
<text style="fill:#000000; fill-opacity:1; font-family:Arial,Helvetica Neue,Helvetica,sans-serif; font-size:48px; text-anchor:middle;" transform="rotate(0, 1634.33, 1483.6)" x="1634.33" y="1483.6">20</text>
</g>
<g clip-path="url(#clip6600)">
<text style="fill:#000000; fill-opacity:1; font-family:Arial,Helvetica Neue,Helvetica,sans-serif; font-size:48px; text-anchor:middle;" transform="rotate(0, 1964.79, 1483.6)" x="1964.79" y="1483.6">25</text>
</g>
<g clip-path="url(#clip6600)">
<text style="fill:#000000; fill-opacity:1; font-family:Arial,Helvetica Neue,Helvetica,sans-serif; font-size:48px; text-anchor:middle;" transform="rotate(0, 2295.26, 1483.6)" x="2295.26" y="1483.6">30</text>
</g>
<g clip-path="url(#clip6600)">
<text style="fill:#000000; fill-opacity:1; font-family:Arial,Helvetica Neue,Helvetica,sans-serif; font-size:48px; text-anchor:end;" transform="rotate(0, 297.058, 1246.7)" x="297.058" y="1246.7">-2.5</text>
</g>
<g clip-path="url(#clip6600)">
<text style="fill:#000000; fill-opacity:1; font-family:Arial,Helvetica Neue,Helvetica,sans-serif; font-size:48px; text-anchor:end;" transform="rotate(0, 297.058, 952.366)" x="297.058" y="952.366">0.0</text>
</g>
<g clip-path="url(#clip6600)">
<text style="fill:#000000; fill-opacity:1; font-family:Arial,Helvetica Neue,Helvetica,sans-serif; font-size:48px; text-anchor:end;" transform="rotate(0, 297.058, 658.036)" x="297.058" y="658.036">2.5</text>
</g>
<g clip-path="url(#clip6600)">
<text style="fill:#000000; fill-opacity:1; font-family:Arial,Helvetica Neue,Helvetica,sans-serif; font-size:48px; text-anchor:end;" transform="rotate(0, 297.058, 363.705)" x="297.058" y="363.705">5.0</text>
</g>
<g clip-path="url(#clip6600)">
<text style="fill:#000000; fill-opacity:1; font-family:Arial,Helvetica Neue,Helvetica,sans-serif; font-size:48px; text-anchor:end;" transform="rotate(0, 297.058, 69.3743)" x="297.058" y="69.3743">7.5</text>
</g>
<polyline clip-path="url(#clip6602)" style="stroke:#009af9; stroke-width:4; stroke-opacity:1; fill:none" points="
  378.559,1293.39 444.652,1287.05 510.745,1202.4 576.838,1200.37 642.931,1133.24 709.024,921.54 775.117,911.875 841.21,859.055 907.303,808.223 973.396,787.309 
  1039.49,774.766 1105.58,768.527 1171.67,767.433 1237.77,752.335 1303.86,740.064 1369.95,730.379 1436.05,728.914 1502.14,712.925 1568.23,627.191 1634.33,592.521 
  1700.42,495.937 1766.51,494.688 1832.6,479.961 1898.7,446.69 1964.79,429.144 2030.88,422.741 2096.98,390.403 2163.07,356.323 2229.16,205.77 2295.26,86.3675 
  
  "/>
<path clip-path="url(#clip6602)" d="
M378.559 1317.3 L444.652 1390.48 L510.745 1263.29 L576.838 1219.29 L642.931 1153.91 L709.024 980.224 L775.117 906.486 L841.21 914.507 L907.303 840.426 L973.396 823.542 
  L1039.49 783.881 L1105.58 782.223 L1171.67 797.273 L1237.77 754.423 L1303.86 810.461 L1369.95 720.923 L1436.05 721.372 L1502.14 803.66 L1568.23 725.273 L1634.33 586.157 
  L1700.42 506.864 L1766.51 559.057 L1832.6 533.574 L1898.7 514.834 L1964.79 458.912 L2030.88 460.235 L2096.98 483.329 L2163.07 392.963 L2229.16 185.11 L2295.26 210.223 
  L2295.26 119.858 L2229.16 100.82 L2163.07 317.605 L2096.98 397.051 L2030.88 364.163 L1964.79 395.768 L1898.7 457.791 L1832.6 459.472 L1766.51 480.28 L1700.42 419.893 
  L1634.33 511.177 L1568.23 660.482 L1502.14 722.67 L1436.05 633.073 L1369.95 635.388 L1303.86 720.03 L1237.77 664.928 L1171.67 730.292 L1105.58 721.185 L1039.49 679.6 
  L973.396 768.657 L907.303 740.727 L841.21 835.484 L775.117 858.596 L709.024 909.834 L642.931 1074.94 L576.838 1155.55 L510.745 1183.82 L444.652 1278.78 L378.559 1227.64 
   Z
  " fill="#e26f46" fill-rule="evenodd" fill-opacity="0.5"/>
<polyline clip-path="url(#clip6602)" style="stroke:#e26f46; stroke-width:4; stroke-opacity:1; fill:none" points="
  378.559,1272.07 444.652,1334.44 510.745,1222.49 576.838,1187.19 642.931,1113.65 709.024,943.573 775.117,881.524 841.21,875.238 907.303,789.472 973.396,796.383 
  1039.49,730.447 1105.58,752.199 1171.67,765.405 1237.77,709.565 1303.86,764.673 1369.95,677.615 1436.05,676.299 1502.14,765.115 1568.23,694.092 1634.33,548.685 
  1700.42,463.989 1766.51,520.69 1832.6,497.84 1898.7,486.613 1964.79,428.095 2030.88,411.549 2096.98,440.325 2163.07,356.549 2229.16,142.657 2295.26,166.199 
  
  "/>
<path clip-path="url(#clip6600)" d="
M1302.34 312.204 L2280.76 312.204 L2280.76 130.764 L1302.34 130.764  Z
  " fill="#ffffff" fill-rule="evenodd" fill-opacity="1"/>
<polyline clip-path="url(#clip6600)" style="stroke:#000000; stroke-width:4; stroke-opacity:1; fill:none" points="
  1302.34,312.204 2280.76,312.204 2280.76,130.764 1302.34,130.764 1302.34,312.204 
  "/>
<polyline clip-path="url(#clip6600)" style="stroke:#009af9; stroke-width:4; stroke-opacity:1; fill:none" points="
  1326.34,191.244 1470.34,191.244 
  "/>
<g clip-path="url(#clip6600)">
<text style="fill:#000000; fill-opacity:1; font-family:Arial,Helvetica Neue,Helvetica,sans-serif; font-size:48px; text-anchor:start;" transform="rotate(0, 1494.34, 208.744)" x="1494.34" y="208.744">data</text>
</g>
<polyline clip-path="url(#clip6600)" style="stroke:#e26f46; stroke-width:4; stroke-opacity:1; fill:none" points="
  1326.34,251.724 1470.34,251.724 
  "/>
<g clip-path="url(#clip6600)">
<text style="fill:#000000; fill-opacity:1; font-family:Arial,Helvetica Neue,Helvetica,sans-serif; font-size:48px; text-anchor:start;" transform="rotate(0, 1494.34, 269.224)" x="1494.34" y="269.224">Mean with (0.025, 0.975) quantiles</text>
</g>
</svg>
