<?xml version="1.0" encoding="utf-8"?>
<svg xmlns="http://www.w3.org/2000/svg" xmlns:xlink="http://www.w3.org/1999/xlink" width="400" height="250" viewBox="0 0 1600 1000">
<defs>
  <clipPath id="clip8100">
    <rect x="0" y="0" width="1600" height="1000"/>
  </clipPath>
</defs>
<path clip-path="url(#clip8100)" d="
M0 1000 L1600 1000 L1600 0 L0 0  Z
  " fill="#ffffff" fill-rule="evenodd" fill-opacity="1"/>
<defs>
  <clipPath id="clip8101">
    <rect x="320" y="0" width="1121" height="1000"/>
  </clipPath>
</defs>
<path clip-path="url(#clip8100)" d="
M318.393 827.095 L1552.76 827.095 L1552.76 208.92 L318.393 208.92  Z
  " fill="#ffffff" fill-rule="evenodd" fill-opacity="1"/>
<defs>
  <clipPath id="clip8102">
    <rect x="318" y="208" width="1235" height="619"/>
  </clipPath>
</defs>
<polyline clip-path="url(#clip8102)" style="stroke:#000000; stroke-width:2; stroke-opacity:0.1; fill:none" points="
  501.925,827.095 501.925,208.92 
  "/>
<polyline clip-path="url(#clip8102)" style="stroke:#000000; stroke-width:2; stroke-opacity:0.1; fill:none" points="
  791.025,827.095 791.025,208.92 
  "/>
<polyline clip-path="url(#clip8102)" style="stroke:#000000; stroke-width:2; stroke-opacity:0.1; fill:none" points="
  1080.12,827.095 1080.12,208.92 
  "/>
<polyline clip-path="url(#clip8102)" style="stroke:#000000; stroke-width:2; stroke-opacity:0.1; fill:none" points="
  1369.22,827.095 1369.22,208.92 
  "/>
<polyline clip-path="url(#clip8102)" style="stroke:#000000; stroke-width:2; stroke-opacity:0.1; fill:none" points="
  318.393,809.6 1552.76,809.6 
  "/>
<polyline clip-path="url(#clip8102)" style="stroke:#000000; stroke-width:2; stroke-opacity:0.1; fill:none" points="
  318.393,719.879 1552.76,719.879 
  "/>
<polyline clip-path="url(#clip8102)" style="stroke:#000000; stroke-width:2; stroke-opacity:0.1; fill:none" points="
  318.393,630.159 1552.76,630.159 
  "/>
<polyline clip-path="url(#clip8102)" style="stroke:#000000; stroke-width:2; stroke-opacity:0.1; fill:none" points="
  318.393,540.438 1552.76,540.438 
  "/>
<polyline clip-path="url(#clip8102)" style="stroke:#000000; stroke-width:2; stroke-opacity:0.1; fill:none" points="
  318.393,450.717 1552.76,450.717 
  "/>
<polyline clip-path="url(#clip8102)" style="stroke:#000000; stroke-width:2; stroke-opacity:0.1; fill:none" points="
  318.393,360.997 1552.76,360.997 
  "/>
<polyline clip-path="url(#clip8102)" style="stroke:#000000; stroke-width:2; stroke-opacity:0.1; fill:none" points="
  318.393,271.276 1552.76,271.276 
  "/>
<polyline clip-path="url(#clip8100)" style="stroke:#000000; stroke-width:4; stroke-opacity:1; fill:none" points="
  318.393,827.095 1552.76,827.095 
  "/>
<polyline clip-path="url(#clip8100)" style="stroke:#000000; stroke-width:4; stroke-opacity:1; fill:none" points="
  318.393,827.095 318.393,208.92 
  "/>
<polyline clip-path="url(#clip8100)" style="stroke:#000000; stroke-width:4; stroke-opacity:1; fill:none" points="
  501.925,827.095 501.925,819.677 
  "/>
<polyline clip-path="url(#clip8100)" style="stroke:#000000; stroke-width:4; stroke-opacity:1; fill:none" points="
  791.025,827.095 791.025,819.677 
  "/>
<polyline clip-path="url(#clip8100)" style="stroke:#000000; stroke-width:4; stroke-opacity:1; fill:none" points="
  1080.12,827.095 1080.12,819.677 
  "/>
<polyline clip-path="url(#clip8100)" style="stroke:#000000; stroke-width:4; stroke-opacity:1; fill:none" points="
  1369.22,827.095 1369.22,819.677 
  "/>
<polyline clip-path="url(#clip8100)" style="stroke:#000000; stroke-width:4; stroke-opacity:1; fill:none" points="
  318.393,809.6 333.206,809.6 
  "/>
<polyline clip-path="url(#clip8100)" style="stroke:#000000; stroke-width:4; stroke-opacity:1; fill:none" points="
  318.393,719.879 333.206,719.879 
  "/>
<polyline clip-path="url(#clip8100)" style="stroke:#000000; stroke-width:4; stroke-opacity:1; fill:none" points="
  318.393,630.159 333.206,630.159 
  "/>
<polyline clip-path="url(#clip8100)" style="stroke:#000000; stroke-width:4; stroke-opacity:1; fill:none" points="
  318.393,540.438 333.206,540.438 
  "/>
<polyline clip-path="url(#clip8100)" style="stroke:#000000; stroke-width:4; stroke-opacity:1; fill:none" points="
  318.393,450.717 333.206,450.717 
  "/>
<polyline clip-path="url(#clip8100)" style="stroke:#000000; stroke-width:4; stroke-opacity:1; fill:none" points="
  318.393,360.997 333.206,360.997 
  "/>
<polyline clip-path="url(#clip8100)" style="stroke:#000000; stroke-width:4; stroke-opacity:1; fill:none" points="
  318.393,271.276 333.206,271.276 
  "/>
<g clip-path="url(#clip8100)">
<text style="fill:#000000; fill-opacity:1; font-family:Arial,Helvetica Neue,Helvetica,sans-serif; font-size:48px; text-anchor:middle;" transform="rotate(0, 501.925, 877.095)" x="501.925" y="877.095">-3</text>
</g>
<g clip-path="url(#clip8100)">
<text style="fill:#000000; fill-opacity:1; font-family:Arial,Helvetica Neue,Helvetica,sans-serif; font-size:48px; text-anchor:middle;" transform="rotate(0, 791.025, 877.095)" x="791.025" y="877.095">-2</text>
</g>
<g clip-path="url(#clip8100)">
<text style="fill:#000000; fill-opacity:1; font-family:Arial,Helvetica Neue,Helvetica,sans-serif; font-size:48px; text-anchor:middle;" transform="rotate(0, 1080.12, 877.095)" x="1080.12" y="877.095">-1</text>
</g>
<g clip-path="url(#clip8100)">
<text style="fill:#000000; fill-opacity:1; font-family:Arial,Helvetica Neue,Helvetica,sans-serif; font-size:48px; text-anchor:middle;" transform="rotate(0, 1369.22, 877.095)" x="1369.22" y="877.095">0</text>
</g>
<g clip-path="url(#clip8100)">
<text style="fill:#000000; fill-opacity:1; font-family:Arial,Helvetica Neue,Helvetica,sans-serif; font-size:48px; text-anchor:end;" transform="rotate(0, 302.393, 827.1)" x="302.393" y="827.1">0</text>
</g>
<g clip-path="url(#clip8100)">
<text style="fill:#000000; fill-opacity:1; font-family:Arial,Helvetica Neue,Helvetica,sans-serif; font-size:48px; text-anchor:end;" transform="rotate(0, 302.393, 737.379)" x="302.393" y="737.379">20</text>
</g>
<g clip-path="url(#clip8100)">
<text style="fill:#000000; fill-opacity:1; font-family:Arial,Helvetica Neue,Helvetica,sans-serif; font-size:48px; text-anchor:end;" transform="rotate(0, 302.393, 647.659)" x="302.393" y="647.659">40</text>
</g>
<g clip-path="url(#clip8100)">
<text style="fill:#000000; fill-opacity:1; font-family:Arial,Helvetica Neue,Helvetica,sans-serif; font-size:48px; text-anchor:end;" transform="rotate(0, 302.393, 557.938)" x="302.393" y="557.938">60</text>
</g>
<g clip-path="url(#clip8100)">
<text style="fill:#000000; fill-opacity:1; font-family:Arial,Helvetica Neue,Helvetica,sans-serif; font-size:48px; text-anchor:end;" transform="rotate(0, 302.393, 468.217)" x="302.393" y="468.217">80</text>
</g>
<g clip-path="url(#clip8100)">
<text style="fill:#000000; fill-opacity:1; font-family:Arial,Helvetica Neue,Helvetica,sans-serif; font-size:48px; text-anchor:end;" transform="rotate(0, 302.393, 378.497)" x="302.393" y="378.497">100</text>
</g>
<g clip-path="url(#clip8100)">
<text style="fill:#000000; fill-opacity:1; font-family:Arial,Helvetica Neue,Helvetica,sans-serif; font-size:48px; text-anchor:end;" transform="rotate(0, 302.393, 288.776)" x="302.393" y="288.776">120</text>
</g>
<g clip-path="url(#clip8100)">
<text style="fill:#000000; fill-opacity:1; font-family:Arial,Helvetica Neue,Helvetica,sans-serif; font-size:84px; text-anchor:middle;" transform="rotate(0, 935.575, 73.2)" x="935.575" y="73.2">Reviewer population bias</text>
</g>
<path clip-path="url(#clip8102)" d="
M386.286 805.114 L386.286 809.6 L444.105 809.6 L444.105 805.114 L386.286 805.114 L386.286 805.114  Z
  " fill="#009af9" fill-rule="evenodd" fill-opacity="1"/>
<polyline clip-path="url(#clip8102)" style="stroke:#000000; stroke-width:4; stroke-opacity:1; fill:none" points="
  386.286,805.114 386.286,809.6 444.105,809.6 444.105,805.114 386.286,805.114 
  "/>
<path clip-path="url(#clip8102)" d="
M444.105 809.6 L444.105 809.6 L501.925 809.6 L501.925 809.6 L444.105 809.6 L444.105 809.6  Z
  " fill="#009af9" fill-rule="evenodd" fill-opacity="1"/>
<polyline clip-path="url(#clip8102)" style="stroke:#000000; stroke-width:4; stroke-opacity:1; fill:none" points="
  444.105,809.6 444.105,809.6 501.925,809.6 444.105,809.6 
  "/>
<path clip-path="url(#clip8102)" d="
M501.925 796.142 L501.925 809.6 L559.745 809.6 L559.745 796.142 L501.925 796.142 L501.925 796.142  Z
  " fill="#009af9" fill-rule="evenodd" fill-opacity="1"/>
<polyline clip-path="url(#clip8102)" style="stroke:#000000; stroke-width:4; stroke-opacity:1; fill:none" points="
  501.925,796.142 501.925,809.6 559.745,809.6 559.745,796.142 501.925,796.142 
  "/>
<path clip-path="url(#clip8102)" d="
M559.745 796.142 L559.745 809.6 L617.565 809.6 L617.565 796.142 L559.745 796.142 L559.745 796.142  Z
  " fill="#009af9" fill-rule="evenodd" fill-opacity="1"/>
<polyline clip-path="url(#clip8102)" style="stroke:#000000; stroke-width:4; stroke-opacity:1; fill:none" points="
  559.745,796.142 559.745,809.6 617.565,809.6 617.565,796.142 559.745,796.142 
  "/>
<path clip-path="url(#clip8102)" d="
M617.565 719.879 L617.565 809.6 L675.385 809.6 L675.385 719.879 L617.565 719.879 L617.565 719.879  Z
  " fill="#009af9" fill-rule="evenodd" fill-opacity="1"/>
<polyline clip-path="url(#clip8102)" style="stroke:#000000; stroke-width:4; stroke-opacity:1; fill:none" points="
  617.565,719.879 617.565,809.6 675.385,809.6 675.385,719.879 617.565,719.879 
  "/>
<path clip-path="url(#clip8102)" d="
M675.385 706.421 L675.385 809.6 L733.205 809.6 L733.205 706.421 L675.385 706.421 L675.385 706.421  Z
  " fill="#009af9" fill-rule="evenodd" fill-opacity="1"/>
<polyline clip-path="url(#clip8102)" style="stroke:#000000; stroke-width:4; stroke-opacity:1; fill:none" points="
  675.385,706.421 675.385,809.6 733.205,809.6 733.205,706.421 675.385,706.421 
  "/>
<path clip-path="url(#clip8102)" d="
M733.205 589.784 L733.205 809.6 L791.025 809.6 L791.025 589.784 L733.205 589.784 L733.205 589.784  Z
  " fill="#009af9" fill-rule="evenodd" fill-opacity="1"/>
<polyline clip-path="url(#clip8102)" style="stroke:#000000; stroke-width:4; stroke-opacity:1; fill:none" points="
  733.205,589.784 733.205,809.6 791.025,809.6 791.025,589.784 733.205,589.784 
  "/>
<path clip-path="url(#clip8102)" d="
M791.025 531.466 L791.025 809.6 L848.845 809.6 L848.845 531.466 L791.025 531.466 L791.025 531.466  Z
  " fill="#009af9" fill-rule="evenodd" fill-opacity="1"/>
<polyline clip-path="url(#clip8102)" style="stroke:#000000; stroke-width:4; stroke-opacity:1; fill:none" points="
  791.025,531.466 791.025,809.6 848.845,809.6 848.845,531.466 791.025,531.466 
  "/>
<path clip-path="url(#clip8102)" d="
M848.845 477.634 L848.845 809.6 L906.665 809.6 L906.665 477.634 L848.845 477.634 L848.845 477.634  Z
  " fill="#009af9" fill-rule="evenodd" fill-opacity="1"/>
<polyline clip-path="url(#clip8102)" style="stroke:#000000; stroke-width:4; stroke-opacity:1; fill:none" points="
  848.845,477.634 848.845,809.6 906.665,809.6 906.665,477.634 848.845,477.634 
  "/>
<path clip-path="url(#clip8102)" d="
M906.665 235.388 L906.665 809.6 L964.485 809.6 L964.485 235.388 L906.665 235.388 L906.665 235.388  Z
  " fill="#009af9" fill-rule="evenodd" fill-opacity="1"/>
<polyline clip-path="url(#clip8102)" style="stroke:#000000; stroke-width:4; stroke-opacity:1; fill:none" points="
  906.665,235.388 906.665,809.6 964.485,809.6 964.485,235.388 906.665,235.388 
  "/>
<path clip-path="url(#clip8102)" d="
M964.485 226.416 L964.485 809.6 L1022.3 809.6 L1022.3 226.416 L964.485 226.416 L964.485 226.416  Z
  " fill="#009af9" fill-rule="evenodd" fill-opacity="1"/>
<polyline clip-path="url(#clip8102)" style="stroke:#000000; stroke-width:4; stroke-opacity:1; fill:none" points="
  964.485,226.416 964.485,809.6 1022.3,809.6 1022.3,226.416 964.485,226.416 
  "/>
<path clip-path="url(#clip8102)" d="
M1022.3 293.706 L1022.3 809.6 L1080.12 809.6 L1080.12 293.706 L1022.3 293.706 L1022.3 293.706  Z
  " fill="#009af9" fill-rule="evenodd" fill-opacity="1"/>
<polyline clip-path="url(#clip8102)" style="stroke:#000000; stroke-width:4; stroke-opacity:1; fill:none" points="
  1022.3,293.706 1022.3,809.6 1080.12,809.6 1080.12,293.706 1022.3,293.706 
  "/>
<path clip-path="url(#clip8102)" d="
M1080.12 275.762 L1080.12 809.6 L1137.94 809.6 L1137.94 275.762 L1080.12 275.762 L1080.12 275.762  Z
  " fill="#009af9" fill-rule="evenodd" fill-opacity="1"/>
<polyline clip-path="url(#clip8102)" style="stroke:#000000; stroke-width:4; stroke-opacity:1; fill:none" points="
  1080.12,275.762 1080.12,809.6 1137.94,809.6 1137.94,275.762 1080.12,275.762 
  "/>
<path clip-path="url(#clip8102)" d="
M1137.94 482.12 L1137.94 809.6 L1195.76 809.6 L1195.76 482.12 L1137.94 482.12 L1137.94 482.12  Z
  " fill="#009af9" fill-rule="evenodd" fill-opacity="1"/>
<polyline clip-path="url(#clip8102)" style="stroke:#000000; stroke-width:4; stroke-opacity:1; fill:none" points="
  1137.94,482.12 1137.94,809.6 1195.76,809.6 1195.76,482.12 1137.94,482.12 
  "/>
<path clip-path="url(#clip8102)" d="
M1195.76 491.092 L1195.76 809.6 L1253.58 809.6 L1253.58 491.092 L1195.76 491.092 L1195.76 491.092  Z
  " fill="#009af9" fill-rule="evenodd" fill-opacity="1"/>
<polyline clip-path="url(#clip8102)" style="stroke:#000000; stroke-width:4; stroke-opacity:1; fill:none" points="
  1195.76,491.092 1195.76,809.6 1253.58,809.6 1253.58,491.092 1195.76,491.092 
  "/>
<path clip-path="url(#clip8102)" d="
M1253.58 616.701 L1253.58 809.6 L1311.4 809.6 L1311.4 616.701 L1253.58 616.701 L1253.58 616.701  Z
  " fill="#009af9" fill-rule="evenodd" fill-opacity="1"/>
<polyline clip-path="url(#clip8102)" style="stroke:#000000; stroke-width:4; stroke-opacity:1; fill:none" points="
  1253.58,616.701 1253.58,809.6 1311.4,809.6 1311.4,616.701 1253.58,616.701 
  "/>
<path clip-path="url(#clip8102)" d="
M1311.4 701.935 L1311.4 809.6 L1369.22 809.6 L1369.22 701.935 L1311.4 701.935 L1311.4 701.935  Z
  " fill="#009af9" fill-rule="evenodd" fill-opacity="1"/>
<polyline clip-path="url(#clip8102)" style="stroke:#000000; stroke-width:4; stroke-opacity:1; fill:none" points="
  1311.4,701.935 1311.4,809.6 1369.22,809.6 1369.22,701.935 1311.4,701.935 
  "/>
<path clip-path="url(#clip8102)" d="
M1369.22 589.784 L1369.22 809.6 L1427.04 809.6 L1427.04 589.784 L1369.22 589.784 L1369.22 589.784  Z
  " fill="#009af9" fill-rule="evenodd" fill-opacity="1"/>
<polyline clip-path="url(#clip8102)" style="stroke:#000000; stroke-width:4; stroke-opacity:1; fill:none" points="
  1369.22,589.784 1369.22,809.6 1427.04,809.6 1427.04,589.784 1369.22,589.784 
  "/>
<path clip-path="url(#clip8102)" d="
M1427.04 751.281 L1427.04 809.6 L1484.86 809.6 L1484.86 751.281 L1427.04 751.281 L1427.04 751.281  Z
  " fill="#009af9" fill-rule="evenodd" fill-opacity="1"/>
<polyline clip-path="url(#clip8102)" style="stroke:#000000; stroke-width:4; stroke-opacity:1; fill:none" points="
  1427.04,751.281 1427.04,809.6 1484.86,809.6 1484.86,751.281 1427.04,751.281 
  "/>
</svg>
